<?xml version="1.0" standalone="no"?>
<!DOCTYPE svg PUBLIC "-//W3C//DTD SVG 20010904//EN"
 "http://www.w3.org/TR/2001/REC-SVG-20010904/DTD/svg10.dtd">
<svg version="1.0" xmlns="http://www.w3.org/2000/svg"
 width="357.000000pt" height="357.000000pt" viewBox="0 0 357.000000 357.000000"
 preserveAspectRatio="xMidYMid meet">
<metadata>
Created by potrace 1.14, written by Peter Selinger 2001-2017
</metadata>
<g transform="translate(0.000000,357.000000) scale(0.100000,-0.100000)"
fill="#000000" stroke="none">
<path d="M1598 3554 c-3 -2 -37 -6 -78 -9 -239 -18 -558 -134 -786 -284 -97
-65 -238 -183 -307 -259 -23 -25 -47 -50 -53 -56 -6 -6 -18 -23 -27 -37 -17
-26 -17 -27 17 -57 19 -16 40 -32 47 -34 9 -3 -5 -32 -45 -91 -131 -194 -206
-365 -256 -580 -29 -125 -35 -184 -34 -342 0 -236 29 -393 113 -611 33 -86
104 -228 127 -255 8 -8 14 -21 14 -27 0 -7 5 -12 10 -12 6 0 10 -6 10 -13 0
-8 9 -22 20 -32 11 -10 20 -24 20 -31 0 -7 4 -14 8 -16 4 -1 23 -23 42 -48 19
-24 52 -62 72 -84 39 -41 48 -65 26 -67 -7 0 -26 -16 -42 -35 l-28 -34 43 -43
c179 -172 418 -309 689 -395 90 -29 117 -36 183 -47 15 -3 39 -7 55 -10 116
-22 477 -23 542 -1 8 3 33 7 55 10 59 8 97 16 108 23 6 3 20 7 31 9 32 4 211
68 214 76 2 5 12 8 22 8 10 0 22 5 25 10 3 6 15 10 25 10 10 0 20 3 22 8 2 4
28 19 58 34 60 30 112 60 120 69 3 3 16 12 29 19 14 7 30 17 35 21 6 5 47 36
91 70 79 62 184 163 247 241 18 22 41 49 50 60 9 10 34 45 55 76 21 31 40 59
43 62 3 3 10 14 16 25 75 138 95 178 114 225 12 30 26 64 31 75 64 147 112
414 109 615 0 52 -2 109 -4 125 -2 17 -7 62 -10 101 -13 147 -86 389 -167 554
-148 304 -395 569 -695 746 -129 76 -363 172 -464 190 -21 3 -37 7 -80 19 -3
0 -32 5 -65 9 -33 5 -71 10 -85 13 -36 5 -308 12 -312 7z m272 -697 c14 -3 42
-8 64 -12 60 -10 184 -54 259 -91 105 -51 184 -110 282 -209 167 -167 254
-335 299 -577 85 -453 -157 -928 -581 -1142 -87 -43 -222 -87 -318 -103 -11
-1 -76 -5 -145 -7 -270 -7 -536 91 -739 274 -18 16 -36 30 -39 30 -4 0 -25
-19 -48 -41 l-43 -42 -36 39 c-20 22 -55 64 -78 94 -23 30 -44 57 -47 60 -8 8
-30 49 -71 130 -87 175 -124 342 -122 555 0 157 26 286 83 425 27 67 91 189
112 215 47 60 61 75 68 75 4 0 25 -16 46 -35 22 -19 41 -35 44 -35 3 0 41 37
85 81 44 45 107 101 140 124 109 78 306 164 411 181 22 3 55 9 74 13 36 8 255
6 300 -2z"/>
<path d="M2077 2393 c-2 -5 -3 -173 -2 -375 1 -203 -1 -369 -4 -369 -37 -7
-62 -6 -68 4 -4 6 -7 115 -8 242 l0 230 -150 0 -150 0 -2 -324 -2 -323 -28
-37 c-36 -47 -53 -64 -54 -54 0 4 -1 103 0 220 0 157 -3 212 -12 215 -7 2 -75
4 -152 4 l-140 -1 -3 -272 c-1 -155 -6 -273 -11 -273 -5 0 -23 11 -39 25 l-30
25 -1 342 c-1 188 -4 344 -6 348 -2 3 -70 6 -152 5 l-148 -1 0 -237 c0 -130
-4 -237 -8 -237 -5 0 -29 15 -55 33 -56 38 -81 47 -104 35 -14 -7 -18 -44 -6
-53 94 -63 168 -119 169 -128 0 -7 1 -48 1 -92 0 -44 5 -89 11 -100 41 -82
272 -293 295 -270 3 3 6 60 5 125 0 66 2 120 6 120 6 0 44 -24 61 -37 3 -3 7
-64 10 -136 l5 -131 80 -29 c85 -30 210 -58 220 -49 3 3 5 95 5 205 l-2 198
34 44 c18 25 36 45 41 45 4 0 7 -113 7 -251 l0 -251 88 5 c48 3 94 7 102 10 8
2 34 8 58 12 23 4 46 13 50 19 4 6 7 162 7 346 l0 334 25 6 c59 15 57 27 55
-313 -1 -172 1 -318 3 -324 2 -7 11 -13 19 -13 29 0 174 89 248 153 l40 35 0
325 0 325 44 42 43 42 35 -36 c20 -20 39 -36 43 -36 4 0 13 19 19 43 6 23 22
83 36 132 32 117 32 116 -7 104 -18 -6 -44 -12 -58 -15 -14 -3 -53 -13 -87
-23 -43 -13 -63 -15 -65 -7 -2 6 -3 97 -3 201 1 126 -2 192 -9 197 -14 10
-294 10 -299 1z"/>
</g>
</svg>
